<svg width="40" height="41" viewBox="0 0 40 41" fill="none" xmlns="http://www.w3.org/2000/svg">
<path d="M20.0003 4.04224C29.2003 4.04224 36.667 11.5089 36.667 20.7089C36.667 29.9089 29.2003 37.3756 20.0003 37.3756C10.8003 37.3756 3.33366 29.9089 3.33366 20.7089C3.33366 11.5089 10.8003 4.04224 20.0003 4.04224ZM13.2837 21.5922L18.2837 26.5922C18.5337 26.8422 18.8503 26.9589 19.167 26.9589C19.4837 26.9589 19.8003 26.8422 20.0503 26.5922C20.5337 26.1089 20.5337 25.3089 20.0503 24.8256L17.1837 21.9589H25.8337C26.517 21.9589 27.0837 21.3922 27.0837 20.7089C27.0837 20.0256 26.517 19.4589 25.8337 19.4589H17.1837L20.0503 16.5922C20.5337 16.1089 20.5337 15.3089 20.0503 14.8256C19.567 14.3422 18.767 14.3422 18.2837 14.8256L13.2837 19.8256C12.8003 20.3089 12.8003 21.1089 13.2837 21.5922Z" fill="#18181B"/>
</svg>
