<svg width="40" height="41" viewBox="0 0 40 41" fill="none" xmlns="http://www.w3.org/2000/svg">
<path d="M19.9997 4.04224C10.7997 4.04224 3.33301 11.5089 3.33301 20.7089C3.33301 29.9089 10.7997 37.3756 19.9997 37.3756C29.1997 37.3756 36.6663 29.9089 36.6663 20.7089C36.6663 11.5089 29.1997 4.04224 19.9997 4.04224ZM26.7163 21.5922L21.7163 26.5922C21.4663 26.8422 21.1497 26.9589 20.833 26.9589C20.5163 26.9589 20.1997 26.8422 19.9497 26.5922C19.4663 26.1089 19.4663 25.3089 19.9497 24.8256L22.8163 21.9589H14.1663C13.483 21.9589 12.9163 21.3922 12.9163 20.7089C12.9163 20.0256 13.483 19.4589 14.1663 19.4589H22.8163L19.9497 16.5922C19.4663 16.1089 19.4663 15.3089 19.9497 14.8256C20.433 14.3422 21.233 14.3422 21.7163 14.8256L26.7163 19.8256C27.1997 20.3089 27.1997 21.1089 26.7163 21.5922Z" fill="#18181B"/>
</svg>
